<?xml version="1.0" encoding="utf-8" ?>
<svg baseProfile="tiny" height="100%" version="1.2" width="100%" xmlns="http://www.w3.org/2000/svg" xmlns:ev="http://www.w3.org/2001/xml-events" xmlns:xlink="http://www.w3.org/1999/xlink"><defs /><line stroke="blue" x1="612" x2="710" y1="517" y2="512" /><line stroke="blue" x1="504" x2="501" y1="686" y2="803" /><line stroke="blue" x1="612" x2="710" y1="497" y2="474" /><line stroke="blue" x1="321" x2="243" y1="405" y2="403" /><line stroke="blue" x1="612" x2="710" y1="477" y2="437" /><line stroke="blue" x1="612" x2="710" y1="537" y2="549" /><line stroke="blue" x1="709" x2="533" y1="366" y2="366" /><line stroke="blue" x1="710" x2="612" y1="437" y2="477" /><line stroke="blue" x1="612" x2="710" y1="556" y2="587" /><line stroke="blue" x1="710" x2="612" y1="474" y2="497" /><line stroke="blue" x1="710" x2="612" y1="512" y2="517" /><line stroke="blue" x1="710" x2="612" y1="549" y2="537" /><line stroke="blue" x1="710" x2="612" y1="587" y2="556" /><line stroke="blue" x1="501" x2="504" y1="803" y2="686" /><line stroke="blue" x1="354" x2="358" y1="794" y2="646" /><line stroke="blue" x1="245" x2="452" y1="696" y2="667" /><line stroke="blue" x1="246" x2="321" y1="606" y2="618" /><line stroke="blue" x1="243" x2="321" y1="403" y2="405" /><line stroke="blue" x1="533" x2="709" y1="366" y2="366" /><line stroke="blue" x1="321" x2="246" y1="618" y2="606" /><line stroke="blue" x1="358" x2="354" y1="646" y2="794" /><line stroke="blue" x1="452" x2="245" y1="667" y2="696" /><circle cx="637" cy="516" r="1" stroke="red" /><circle cx="661" cy="514" r="1" stroke="red" /><circle cx="685" cy="513" r="1" stroke="red" /><circle cx="685" cy="513" r="1" stroke="red" /><circle cx="661" cy="514" r="1" stroke="red" /><circle cx="637" cy="516" r="1" stroke="red" /><circle cx="503" cy="715" r="1" stroke="red" /><circle cx="502" cy="745" r="1" stroke="red" /><circle cx="502" cy="774" r="1" stroke="red" /><circle cx="502" cy="774" r="1" stroke="red" /><circle cx="502" cy="745" r="1" stroke="red" /><circle cx="503" cy="715" r="1" stroke="red" /><circle cx="637" cy="491" r="1" stroke="red" /><circle cx="661" cy="486" r="1" stroke="red" /><circle cx="685" cy="480" r="1" stroke="red" /><circle cx="685" cy="480" r="1" stroke="red" /><circle cx="661" cy="486" r="1" stroke="red" /><circle cx="637" cy="491" r="1" stroke="red" /><circle cx="295" cy="404" r="1" stroke="red" /><circle cx="269" cy="404" r="1" stroke="red" /><circle cx="269" cy="404" r="1" stroke="red" /><circle cx="295" cy="404" r="1" stroke="red" /><circle cx="637" cy="467" r="1" stroke="red" /><circle cx="661" cy="457" r="1" stroke="red" /><circle cx="685" cy="447" r="1" stroke="red" /><circle cx="685" cy="447" r="1" stroke="red" /><circle cx="661" cy="457" r="1" stroke="red" /><circle cx="637" cy="467" r="1" stroke="red" /><circle cx="637" cy="540" r="1" stroke="red" /><circle cx="661" cy="543" r="1" stroke="red" /><circle cx="685" cy="546" r="1" stroke="red" /><circle cx="685" cy="546" r="1" stroke="red" /><circle cx="661" cy="543" r="1" stroke="red" /><circle cx="637" cy="540" r="1" stroke="red" /><circle cx="680" cy="366" r="1" stroke="red" /><circle cx="651" cy="366" r="1" stroke="red" /><circle cx="621" cy="366" r="1" stroke="red" /><circle cx="592" cy="366" r="1" stroke="red" /><circle cx="562" cy="366" r="1" stroke="red" /><circle cx="562" cy="366" r="1" stroke="red" /><circle cx="592" cy="366" r="1" stroke="red" /><circle cx="621" cy="366" r="1" stroke="red" /><circle cx="651" cy="366" r="1" stroke="red" /><circle cx="680" cy="366" r="1" stroke="red" /><circle cx="636" cy="564" r="1" stroke="red" /><circle cx="661" cy="572" r="1" stroke="red" /><circle cx="685" cy="579" r="1" stroke="red" /><circle cx="685" cy="579" r="1" stroke="red" /><circle cx="661" cy="572" r="1" stroke="red" /><circle cx="636" cy="564" r="1" stroke="red" /><circle cx="354" cy="764" r="1" stroke="red" /><circle cx="355" cy="735" r="1" stroke="red" /><circle cx="356" cy="705" r="1" stroke="red" /><circle cx="357" cy="676" r="1" stroke="red" /><circle cx="357" cy="676" r="1" stroke="red" /><circle cx="356" cy="705" r="1" stroke="red" /><circle cx="355" cy="735" r="1" stroke="red" /><circle cx="354" cy="764" r="1" stroke="red" /><circle cx="275" cy="692" r="1" stroke="red" /><circle cx="304" cy="688" r="1" stroke="red" /><circle cx="334" cy="684" r="1" stroke="red" /><circle cx="363" cy="679" r="1" stroke="red" /><circle cx="393" cy="675" r="1" stroke="red" /><circle cx="422" cy="671" r="1" stroke="red" /><circle cx="422" cy="671" r="1" stroke="red" /><circle cx="393" cy="675" r="1" stroke="red" /><circle cx="363" cy="679" r="1" stroke="red" /><circle cx="334" cy="684" r="1" stroke="red" /><circle cx="304" cy="688" r="1" stroke="red" /><circle cx="275" cy="692" r="1" stroke="red" /><circle cx="271" cy="610" r="1" stroke="red" /><circle cx="296" cy="614" r="1" stroke="red" /><circle cx="296" cy="614" r="1" stroke="red" /><circle cx="271" cy="610" r="1" stroke="red" /></svg>